<mxfile host="app.diagrams.net" modified="2023-11-22T14:12:00.355Z" agent="Mozilla/5.0 (Windows NT 10.0; Win64; x64) AppleWebKit/537.36 (KHTML, like Gecko) Chrome/119.0.0.0 Safari/537.36" etag="6oZIEBmNCmQyT9pPtmUK" version="22.1.3" type="github">
  <diagram name="Page-1" id="nUPiuCRVbXKer7cdgbRS">
    <mxGraphModel dx="2074" dy="1120" grid="1" gridSize="10" guides="1" tooltips="1" connect="1" arrows="1" fold="1" page="1" pageScale="1" pageWidth="827" pageHeight="1169" math="0" shadow="0">
      <root>
        <mxCell id="0" />
        <mxCell id="1" parent="0" />
        <mxCell id="meWhoNTzZQdbwV-DVgsE-1" value="" style="edgeStyle=orthogonalEdgeStyle;rounded=0;orthogonalLoop=1;jettySize=auto;html=1;" edge="1" parent="1" source="meWhoNTzZQdbwV-DVgsE-2" target="meWhoNTzZQdbwV-DVgsE-5">
          <mxGeometry relative="1" as="geometry" />
        </mxCell>
        <mxCell id="meWhoNTzZQdbwV-DVgsE-2" value="start" style="rounded=1;whiteSpace=wrap;html=1;" vertex="1" parent="1">
          <mxGeometry x="440" width="160" height="40" as="geometry" />
        </mxCell>
        <mxCell id="meWhoNTzZQdbwV-DVgsE-11" value="" style="edgeStyle=orthogonalEdgeStyle;rounded=0;orthogonalLoop=1;jettySize=auto;html=1;" edge="1" parent="1" source="meWhoNTzZQdbwV-DVgsE-3">
          <mxGeometry relative="1" as="geometry">
            <mxPoint x="520" y="240" as="targetPoint" />
          </mxGeometry>
        </mxCell>
        <mxCell id="meWhoNTzZQdbwV-DVgsE-3" value="set initial conditions (like velocities)" style="rounded=0;whiteSpace=wrap;html=1;" vertex="1" parent="1">
          <mxGeometry x="440" y="160" width="160" height="40" as="geometry" />
        </mxCell>
        <mxCell id="meWhoNTzZQdbwV-DVgsE-4" value="" style="edgeStyle=orthogonalEdgeStyle;rounded=0;orthogonalLoop=1;jettySize=auto;html=1;" edge="1" parent="1" source="meWhoNTzZQdbwV-DVgsE-5" target="meWhoNTzZQdbwV-DVgsE-3">
          <mxGeometry relative="1" as="geometry" />
        </mxCell>
        <mxCell id="meWhoNTzZQdbwV-DVgsE-5" value="preparing and tracking&amp;nbsp;" style="rounded=0;whiteSpace=wrap;html=1;" vertex="1" parent="1">
          <mxGeometry x="440" y="80" width="160" height="40" as="geometry" />
        </mxCell>
        <mxCell id="meWhoNTzZQdbwV-DVgsE-6" value="init" style="text;html=1;strokeColor=none;fillColor=none;align=center;verticalAlign=middle;whiteSpace=wrap;rounded=0;" vertex="1" parent="1">
          <mxGeometry x="640" y="80" width="120" height="40" as="geometry" />
        </mxCell>
        <mxCell id="meWhoNTzZQdbwV-DVgsE-7" value="run_md" style="text;html=1;strokeColor=none;fillColor=none;align=center;verticalAlign=middle;whiteSpace=wrap;rounded=0;" vertex="1" parent="1">
          <mxGeometry x="640" y="160" width="120" height="40" as="geometry" />
        </mxCell>
        <mxCell id="meWhoNTzZQdbwV-DVgsE-8" value="!fech pseudopotentials" style="text;html=1;strokeColor=none;fillColor=none;align=center;verticalAlign=middle;whiteSpace=wrap;rounded=0;" vertex="1" parent="1">
          <mxGeometry x="640" y="320" width="160" height="40" as="geometry" />
        </mxCell>
        <mxCell id="meWhoNTzZQdbwV-DVgsE-13" value="" style="edgeStyle=orthogonalEdgeStyle;rounded=0;orthogonalLoop=1;jettySize=auto;html=1;" edge="1" parent="1" target="meWhoNTzZQdbwV-DVgsE-12">
          <mxGeometry relative="1" as="geometry">
            <mxPoint x="520" y="280" as="sourcePoint" />
          </mxGeometry>
        </mxCell>
        <mxCell id="meWhoNTzZQdbwV-DVgsE-20" value="" style="edgeStyle=orthogonalEdgeStyle;rounded=0;orthogonalLoop=1;jettySize=auto;html=1;" edge="1" parent="1" source="meWhoNTzZQdbwV-DVgsE-12" target="meWhoNTzZQdbwV-DVgsE-19">
          <mxGeometry relative="1" as="geometry" />
        </mxCell>
        <mxCell id="meWhoNTzZQdbwV-DVgsE-12" value="get pseudopotentials" style="whiteSpace=wrap;html=1;" vertex="1" parent="1">
          <mxGeometry x="440" y="320" width="160" height="40" as="geometry" />
        </mxCell>
        <mxCell id="meWhoNTzZQdbwV-DVgsE-16" value="read parsec.in" style="rounded=0;whiteSpace=wrap;html=1;" vertex="1" parent="1">
          <mxGeometry x="440" y="240" width="160" height="40" as="geometry" />
        </mxCell>
        <mxCell id="meWhoNTzZQdbwV-DVgsE-23" value="" style="edgeStyle=orthogonalEdgeStyle;rounded=0;orthogonalLoop=1;jettySize=auto;html=1;" edge="1" parent="1" source="meWhoNTzZQdbwV-DVgsE-19" target="meWhoNTzZQdbwV-DVgsE-22">
          <mxGeometry relative="1" as="geometry" />
        </mxCell>
        <mxCell id="meWhoNTzZQdbwV-DVgsE-19" value="make grid" style="whiteSpace=wrap;html=1;" vertex="1" parent="1">
          <mxGeometry x="440" y="400" width="160" height="40" as="geometry" />
        </mxCell>
        <mxCell id="meWhoNTzZQdbwV-DVgsE-21" value="!Generat kpoint mesh+generate the actual grid" style="text;html=1;strokeColor=none;fillColor=none;align=center;verticalAlign=middle;whiteSpace=wrap;rounded=0;" vertex="1" parent="1">
          <mxGeometry x="640" y="400" width="160" height="40" as="geometry" />
        </mxCell>
        <mxCell id="meWhoNTzZQdbwV-DVgsE-25" value="" style="edgeStyle=orthogonalEdgeStyle;rounded=0;orthogonalLoop=1;jettySize=auto;html=1;" edge="1" parent="1" source="meWhoNTzZQdbwV-DVgsE-22" target="meWhoNTzZQdbwV-DVgsE-24">
          <mxGeometry relative="1" as="geometry" />
        </mxCell>
        <mxCell id="meWhoNTzZQdbwV-DVgsE-22" value="halo?" style="whiteSpace=wrap;html=1;" vertex="1" parent="1">
          <mxGeometry x="440" y="480" width="160" height="40" as="geometry" />
        </mxCell>
        <mxCell id="meWhoNTzZQdbwV-DVgsE-27" value="" style="edgeStyle=orthogonalEdgeStyle;rounded=0;orthogonalLoop=1;jettySize=auto;html=1;" edge="1" parent="1" source="meWhoNTzZQdbwV-DVgsE-24" target="meWhoNTzZQdbwV-DVgsE-26">
          <mxGeometry relative="1" as="geometry" />
        </mxCell>
        <mxCell id="meWhoNTzZQdbwV-DVgsE-24" value="matrix" style="whiteSpace=wrap;html=1;" vertex="1" parent="1">
          <mxGeometry x="440" y="560" width="160" height="40" as="geometry" />
        </mxCell>
        <mxCell id="meWhoNTzZQdbwV-DVgsE-30" value="" style="edgeStyle=orthogonalEdgeStyle;rounded=0;orthogonalLoop=1;jettySize=auto;html=1;" edge="1" parent="1" source="meWhoNTzZQdbwV-DVgsE-26" target="meWhoNTzZQdbwV-DVgsE-29">
          <mxGeometry relative="1" as="geometry" />
        </mxCell>
        <mxCell id="meWhoNTzZQdbwV-DVgsE-26" value="KS" style="whiteSpace=wrap;html=1;" vertex="1" parent="1">
          <mxGeometry x="440" y="640" width="160" height="40" as="geometry" />
        </mxCell>
        <mxCell id="meWhoNTzZQdbwV-DVgsE-29" value="Sanity check" style="whiteSpace=wrap;html=1;" vertex="1" parent="1">
          <mxGeometry x="440" y="720" width="160" height="40" as="geometry" />
        </mxCell>
        <mxCell id="meWhoNTzZQdbwV-DVgsE-31" value="" style="endArrow=classic;html=1;rounded=0;" edge="1" parent="1">
          <mxGeometry width="50" height="50" relative="1" as="geometry">
            <mxPoint x="520" y="760" as="sourcePoint" />
            <mxPoint x="200" y="80" as="targetPoint" />
            <Array as="points">
              <mxPoint x="520" y="800" />
              <mxPoint x="400" y="800" />
              <mxPoint x="400" y="40" />
              <mxPoint x="200" y="40" />
            </Array>
          </mxGeometry>
        </mxCell>
        <mxCell id="meWhoNTzZQdbwV-DVgsE-37" value="" style="edgeStyle=orthogonalEdgeStyle;rounded=0;orthogonalLoop=1;jettySize=auto;html=1;" edge="1" parent="1" source="meWhoNTzZQdbwV-DVgsE-32" target="meWhoNTzZQdbwV-DVgsE-36">
          <mxGeometry relative="1" as="geometry" />
        </mxCell>
        <mxCell id="meWhoNTzZQdbwV-DVgsE-32" value="run md" style="whiteSpace=wrap;html=1;" vertex="1" parent="1">
          <mxGeometry x="120" y="80" width="160" height="40" as="geometry" />
        </mxCell>
        <mxCell id="meWhoNTzZQdbwV-DVgsE-34" value="run_md" style="text;html=1;strokeColor=none;fillColor=none;align=center;verticalAlign=middle;whiteSpace=wrap;rounded=0;" vertex="1" parent="1">
          <mxGeometry x="280" y="80" width="120" height="40" as="geometry" />
        </mxCell>
        <mxCell id="meWhoNTzZQdbwV-DVgsE-36" value="move one time step" style="whiteSpace=wrap;html=1;" vertex="1" parent="1">
          <mxGeometry x="120" y="160" width="160" height="40" as="geometry" />
        </mxCell>
      </root>
    </mxGraphModel>
  </diagram>
</mxfile>
